<svg id="visual" viewBox="0 0 900 600" width="900" height="600" xmlns="http://www.w3.org/2000/svg" xmlns:xlink="http://www.w3.org/1999/xlink" version="1.1"><rect x="0" y="0" width="900" height="600" fill="#001220"></rect><defs><linearGradient id="grad1_0" x1="33.3%" y1="0%" x2="100%" y2="100%"><stop offset="20%" stop-color="#001220" stop-opacity="1"></stop><stop offset="80%" stop-color="#001220" stop-opacity="1"></stop></linearGradient></defs><defs><linearGradient id="grad2_0" x1="0%" y1="0%" x2="66.7%" y2="100%"><stop offset="20%" stop-color="#001220" stop-opacity="1"></stop><stop offset="80%" stop-color="#001220" stop-opacity="1"></stop></linearGradient></defs><g transform="translate(900, 0)"><path d="M0 486.7C-65.5 482.2 -131.1 477.6 -186.3 449.7C-241.4 421.8 -286.2 370.7 -320.3 320.3C-354.4 270 -377.8 220.5 -403.7 167.2C-429.7 114 -458.2 57 -486.7 0L0 0Z" fill="#FBAE3C"></path></g><g transform="translate(0, 600)"><path d="M0 -486.7C59.6 -473.7 119.3 -460.7 182.5 -440.7C245.8 -420.7 312.6 -393.7 344.2 -344.2C375.7 -294.7 372 -222.6 389.9 -161.5C407.8 -100.4 447.3 -50.2 486.7 0L0 0Z" fill="#FBAE3C"></path></g></svg>